<svg width="19" height="18" viewBox="0 0 19 18" fill="none" xmlns="http://www.w3.org/2000/svg">
<path d="M0 5C0 2.23858 2.23858 0 5 0H14C16.7614 0 19 2.23858 19 5V5.9375H0V5Z" fill="#F28623"/>
<rect y="5.9375" width="19" height="5.9375" fill="#F0F5F9"/>
<path d="M0 11.875H19V12.8125C19 15.5739 16.7614 17.8125 14 17.8125H5C2.23858 17.8125 0 15.5739 0 12.8125V11.875Z" fill="#65B54E"/>
<path d="M9.95351 10.827C11.0147 10.5765 11.672 9.51317 11.4215 8.45196C11.171 7.39076 10.1077 6.73352 9.04649 6.98399C7.98528 7.23446 7.32804 8.29778 7.57851 9.35899C7.82898 10.4202 8.8923 11.0774 9.95351 10.827Z" fill="#00247D"/>
<path d="M10.2929 10.5113L10.3595 10.3496C10.3718 10.3204 10.3924 10.2955 10.4188 10.2779C10.4452 10.2603 10.4761 10.2508 10.5078 10.2507H10.6828C10.7252 10.2507 10.7658 10.2339 10.7958 10.2039C10.8257 10.174 10.8426 10.1333 10.8426 10.091V9.91597C10.8427 9.88427 10.8521 9.85331 10.8697 9.82693C10.8873 9.80055 10.9123 9.77992 10.9415 9.76762L11.1031 9.70105C11.1423 9.68463 11.1734 9.65349 11.1897 9.61435C11.2061 9.57521 11.2064 9.5312 11.1906 9.49183L11.1222 9.33016C11.1105 9.30095 11.1077 9.26895 11.1141 9.23816C11.1205 9.20737 11.1359 9.17916 11.1583 9.15707L11.2819 9.03344C11.2968 9.0186 11.3086 9.00096 11.3167 8.98154C11.3248 8.96212 11.3289 8.9413 11.3289 8.92027C11.3289 8.89924 11.3248 8.87842 11.3167 8.859C11.3086 8.83958 11.2968 8.82195 11.2819 8.8071L11.1583 8.68347C11.1361 8.66087 11.121 8.63224 11.1149 8.60113C11.1088 8.57001 11.112 8.5378 11.1241 8.50849L11.1906 8.34682C11.1987 8.32735 11.2029 8.30647 11.2028 8.28539C11.2028 8.26431 11.1986 8.24344 11.1905 8.22399C11.1823 8.20454 11.1704 8.1869 11.1554 8.17207C11.1405 8.15724 11.1227 8.14553 11.1031 8.1376L10.9415 8.07103C10.9123 8.05872 10.8873 8.03809 10.8697 8.01172C10.8521 7.98534 10.8427 7.95437 10.8426 7.92267V7.74769C10.8426 7.70531 10.8257 7.66467 10.7958 7.63471C10.7658 7.60475 10.7252 7.58792 10.6828 7.58792H10.5078C10.4761 7.58779 10.4452 7.57835 10.4188 7.56077C10.3924 7.54318 10.3718 7.51823 10.3595 7.48901L10.2929 7.32734C10.2765 7.28823 10.2453 7.25713 10.2062 7.24076C10.1671 7.22439 10.1231 7.22407 10.0837 7.23985L9.922 7.30832C9.8928 7.32001 9.8608 7.32281 9.83001 7.31638C9.79922 7.30995 9.77101 7.29458 9.74892 7.27218L9.62529 7.14855C9.61045 7.13366 9.59281 7.12184 9.57339 7.11378C9.55397 7.10571 9.53315 7.10156 9.51212 7.10156C9.49109 7.10156 9.47027 7.10571 9.45085 7.11378C9.43143 7.12184 9.41379 7.13366 9.39895 7.14855L9.27532 7.27218C9.25272 7.29442 9.22409 7.30952 9.19297 7.31561C9.16186 7.32169 9.12965 7.3185 9.10034 7.30642L8.94057 7.23985C8.92109 7.23178 8.90022 7.22764 8.87914 7.22767C8.85806 7.2277 8.83719 7.23191 8.81774 7.24004C8.79829 7.24817 8.78065 7.26007 8.76582 7.27506C8.75099 7.29004 8.73928 7.30781 8.73135 7.32734L8.66478 7.48901C8.65247 7.51823 8.63184 7.54318 8.60547 7.56077C8.57909 7.57835 8.54812 7.58779 8.51642 7.58792H8.34144C8.29906 7.58792 8.25842 7.60475 8.22846 7.63471C8.1985 7.66467 8.18167 7.70531 8.18167 7.74769V7.92267C8.18154 7.95437 8.1721 7.98534 8.15452 8.01172C8.13693 8.03809 8.11198 8.05872 8.08276 8.07103L7.92109 8.1376C7.88197 8.15402 7.85088 8.18515 7.83451 8.22429C7.81814 8.26343 7.81782 8.30744 7.8336 8.34682L7.90207 8.50849C7.91376 8.53769 7.91656 8.56969 7.91013 8.60048C7.9037 8.63127 7.88833 8.65948 7.86593 8.68157L7.7423 8.8052C7.72741 8.82004 7.71559 8.83768 7.70753 8.8571C7.69946 8.87652 7.69531 8.89734 7.69531 8.91837C7.69531 8.9394 7.69946 8.96022 7.70753 8.97964C7.71559 8.99906 7.72741 9.0167 7.7423 9.03154L7.86593 9.15517C7.88817 9.17777 7.90327 9.2064 7.90936 9.23752C7.91544 9.26863 7.91225 9.30084 7.90017 9.33016L7.8336 9.49183C7.82553 9.5113 7.82139 9.53218 7.82142 9.55326C7.82145 9.57434 7.82566 9.5952 7.83379 9.61465C7.84192 9.6341 7.85382 9.65175 7.86881 9.66657C7.88379 9.6814 7.90156 9.69312 7.92109 9.70105L8.08276 9.76762C8.11198 9.77992 8.13693 9.80055 8.15452 9.82693C8.1721 9.85331 8.18154 9.88427 8.18167 9.91597V10.091C8.18167 10.1333 8.1985 10.174 8.22846 10.2039C8.25842 10.2339 8.29906 10.2507 8.34144 10.2507H8.51642C8.54812 10.2508 8.57909 10.2603 8.60547 10.2779C8.63184 10.2955 8.65247 10.3204 8.66478 10.3496L8.73135 10.5113C8.74777 10.5504 8.7789 10.5815 8.81804 10.5979C8.85718 10.6142 8.90119 10.6146 8.94057 10.5988L9.10224 10.5303C9.13144 10.5186 9.16344 10.5158 9.19423 10.5223C9.22502 10.5287 9.25323 10.5441 9.27532 10.5665L9.39895 10.6901C9.41379 10.705 9.43143 10.7168 9.45085 10.7249C9.47027 10.7329 9.49109 10.7371 9.51212 10.7371C9.53315 10.7371 9.55397 10.7329 9.57339 10.7249C9.59281 10.7168 9.61045 10.705 9.62529 10.6901L9.74892 10.5665C9.77152 10.5442 9.80015 10.5291 9.83127 10.523C9.86238 10.517 9.89459 10.5201 9.9239 10.5322L10.0856 10.5988C10.1247 10.6145 10.1684 10.6141 10.2073 10.5977C10.2461 10.5813 10.2769 10.5503 10.2929 10.5113Z" fill="#F0F5F9"/>
<path d="M9.52404 7.35162L9.51263 7.28125L9.50122 7.35162C9.42705 7.83508 9.42705 8.32701 9.50122 8.81046L9.51263 8.88084L9.52404 8.81046C9.59821 8.32701 9.59821 7.83508 9.52404 7.35162ZM9.52404 9.02729L9.51263 8.95692L9.50122 9.02729C9.42705 9.51074 9.42705 10.0027 9.50122 10.4861L9.51263 10.5565L9.52404 10.4861C9.59821 10.0027 9.59821 9.51074 9.52404 9.02729ZM11.0799 8.93029L11.1503 8.91888L11.0799 8.90747C10.5964 8.8333 10.1045 8.8333 9.62104 8.90747L9.55067 8.91888L9.62104 8.93029C10.1045 9.00446 10.5964 9.00446 11.0799 8.93029ZM9.40421 8.93029L9.47459 8.91888L9.40421 8.90747C8.92076 8.8333 8.42883 8.8333 7.94537 8.90747L7.875 8.91888L7.94537 8.93029C8.42883 9.00446 8.92076 9.00446 9.40421 8.93029ZM10.6291 7.81762L10.6709 7.76056L10.6139 7.8024C10.2176 8.09033 9.86903 8.43886 9.5811 8.83519L9.53925 8.89225L9.59632 8.8504C9.99264 8.56247 10.3412 8.21394 10.6291 7.81762ZM9.44415 9.00257L9.486 8.9455L9.42894 8.98735C9.03261 9.27528 8.68408 9.62381 8.39615 10.0201L8.35431 10.0772L8.41137 10.0354C8.80769 9.74742 9.15622 9.39889 9.44415 9.00257ZM10.6139 10.0354L10.6709 10.0772L10.6291 10.0201C10.3412 9.62381 9.99264 9.27528 9.59632 8.98735L9.53925 8.9455L9.5811 9.00257C9.86903 9.39889 10.2176 9.74742 10.6139 10.0354ZM9.42894 8.8504L9.486 8.89225L9.44415 8.83519C9.15622 8.43886 8.80769 8.09033 8.41137 7.8024L8.35431 7.76056L8.39615 7.81762C8.68408 8.21394 9.03261 8.56247 9.42894 8.8504ZM8.92301 7.46574L8.88497 7.39727L8.90208 7.46765C9.01795 7.94326 9.20657 8.39812 9.46127 8.81617L9.49741 8.87703L9.48219 8.80666C9.36558 8.33368 9.17699 7.88143 8.92301 7.46574ZM9.56398 9.01398L9.52784 8.95311L9.54306 9.02349C9.65893 9.4991 9.84755 9.95397 10.1022 10.372L10.1403 10.4329L10.1232 10.3625C10.0073 9.88689 9.81868 9.43202 9.56398 9.01398ZM10.9658 8.32926L11.0266 8.29122L10.9562 8.30833C10.4806 8.4242 10.0258 8.61282 9.60773 8.86752L9.54686 8.90366L9.61724 8.88844C10.0928 8.77257 10.5477 8.58396 10.9658 8.32926ZM9.41753 8.97023L9.47839 8.93409L9.40802 8.94931C8.9324 9.06518 8.47754 9.2538 8.05949 9.5085L7.99863 9.54654L8.069 9.52942C8.54462 9.41355 8.99948 9.22493 9.41753 8.97023ZM10.1232 7.47525L10.1403 7.39727L10.1022 7.45814C9.84755 7.87618 9.65893 8.33105 9.54306 8.80666L9.52784 8.87703L9.56398 8.81617C9.81796 8.40048 10.0066 7.94823 10.1232 7.47525ZM9.48219 9.02349L9.49741 8.95311L9.46127 9.01398C9.20657 9.43202 9.01795 9.88689 8.90208 10.3625L8.88497 10.4405L8.92301 10.3796C9.17843 9.95922 9.36707 9.50173 9.48219 9.02349ZM10.9562 9.52942L11.0266 9.54654L10.9658 9.5085C10.5477 9.2538 10.0928 9.06518 9.61724 8.94931L9.54686 8.93409L9.60773 8.97023C10.0258 9.22493 10.4806 9.41355 10.9562 9.52942ZM9.40802 8.88844L9.47839 8.90366L9.41753 8.86752C8.99948 8.61282 8.54462 8.4242 8.069 8.30833L7.99102 8.29122L8.05189 8.32926C8.47228 8.58468 8.92977 8.77332 9.40802 8.88844Z" fill="#00247D"/>
<path d="M9.51291 9.31097C9.7293 9.31097 9.90472 9.13555 9.90472 8.91916C9.90472 8.70276 9.7293 8.52734 9.51291 8.52734C9.29651 8.52734 9.12109 8.70276 9.12109 8.91916C9.12109 9.13555 9.29651 9.31097 9.51291 9.31097Z" fill="#00247D"/>
</svg>
