<svg width="54" height="54" viewBox="0 0 54 54" fill="none" xmlns="http://www.w3.org/2000/svg">
<path fill-rule="evenodd" clip-rule="evenodd" d="M35.2575 21.3743H11.25C10.35 21.3743 9.495 21.7343 8.865 22.3643C8.235 22.9943 7.875 23.8605 7.875 24.7493C7.87709 25.4469 8.09425 26.127 8.49689 26.6967C8.89953 27.2664 9.46807 27.6982 10.125 27.933V29.3168H7.99875C6.0975 29.3168 4.5 30.9368 4.5 32.9505C4.53375 34.953 6.13125 36.5505 8.02125 36.5393H10.125V42.1418C10.125 46.1918 13.3875 49.4993 17.325 49.4993H36.675C40.6125 49.4993 43.875 46.1805 43.875 42.1418V36.5393H46.0237C47.9137 36.528 49.5 34.908 49.5 32.9055C49.5 32.8718 49.5 32.9393 49.5 32.9055C49.4662 30.9368 47.8912 29.2605 46.0237 29.2493H43.875V27.933C44.5324 27.6989 45.1014 27.2673 45.5041 26.6974C45.9069 26.1275 46.1237 25.4471 46.125 24.7493C46.125 23.8605 45.765 22.9943 45.135 22.3643C44.505 21.7343 43.6387 21.3743 42.75 21.3743H41.2875L44.7075 13.668C45.4162 12.093 44.775 10.1805 43.3012 9.37052H43.29C42.84 9.12302 42.3337 8.99927 41.8162 8.99927C40.4775 8.99927 39.2625 9.86552 38.8012 11.1818L35.2575 21.3743ZM12.375 28.1243V42.1418C12.375 44.943 14.6025 47.2493 17.325 47.2493H36.675C39.3975 47.2493 41.625 44.9318 41.625 42.1418V28.1243H12.375ZM13.5 37.1243V41.613C13.5 42.8055 13.9725 43.9643 14.8275 44.808C15.6745 45.6565 16.8236 46.134 18.0225 46.1355H20.2612C20.88 46.1355 21.3862 45.6293 21.3862 45.0105C21.3862 44.3918 20.88 43.8855 20.2612 43.8855H18.0225C17.4262 43.8855 16.8412 43.6493 16.425 43.2218C15.9975 42.7943 15.7612 42.2205 15.7612 41.6243V37.1355C15.7612 36.5168 15.255 36.0105 14.6362 36.0105C14.0175 36.0105 13.5112 36.5168 13.5112 37.1355L13.5 37.1243ZM31.5 30.3743C31.5 29.7555 30.9937 29.2493 30.375 29.2493H23.625C23.0062 29.2493 22.5 29.7555 22.5 30.3743V33.7493C22.5 34.368 23.0062 34.8743 23.625 34.8743H30.375C30.9937 34.8743 31.5 34.368 31.5 33.7493V30.3743ZM43.875 31.4993H46.0125C46.6987 31.4993 47.2387 32.1855 47.25 32.9055C47.25 33.6368 46.71 34.278 46.0125 34.2893H43.875V31.4993ZM10.125 34.278H8.01C7.3125 34.278 6.7725 33.6593 6.75 32.9393C6.75 32.1968 7.30125 31.5555 7.99875 31.5555H10.125V34.278ZM29.25 31.4993V32.6243H24.75V31.4993H29.25ZM42.75 25.8743H11.25C10.9462 25.8743 10.665 25.7505 10.4512 25.548C10.2375 25.3343 10.125 25.053 10.125 24.7493C10.125 24.4455 10.2487 24.1643 10.4512 23.9505C10.556 23.8458 10.6806 23.7629 10.8177 23.7069C10.9549 23.6509 11.1019 23.6228 11.25 23.6243H42.75C43.0537 23.6243 43.335 23.748 43.5487 23.9505C43.7625 24.1643 43.875 24.4455 43.875 24.7493C43.875 25.053 43.7512 25.3343 43.5487 25.548C43.444 25.6528 43.3194 25.7356 43.1822 25.7916C43.0451 25.8477 42.8981 25.8758 42.75 25.8743ZM38.8237 21.3743L42.6487 12.7455C42.8737 12.228 42.705 11.6093 42.2212 11.3393C42.0965 11.2729 41.9575 11.2382 41.8162 11.238C41.4112 11.238 41.0625 11.5193 40.9162 11.913L37.6312 21.363H38.8237V21.3743ZM26.505 4.61177C26.505 4.61177 24.1875 5.78177 23.715 7.89677C23.4112 9.24677 23.76 11.0918 26.2687 13.2293C27.81 14.5343 28.2712 15.5355 28.08 16.3568C27.8212 17.5155 26.4937 18.1118 26.4937 18.1118C26.3606 18.1766 26.2416 18.267 26.1434 18.3779C26.0453 18.4888 25.9701 18.618 25.922 18.7581C25.8739 18.8981 25.854 19.0463 25.8633 19.1941C25.8726 19.3419 25.911 19.4864 25.9762 19.6193C26.041 19.7524 26.1315 19.8715 26.2424 19.9696C26.3533 20.0677 26.4825 20.143 26.6225 20.191C26.7626 20.2391 26.9108 20.2591 27.0586 20.2498C27.2063 20.2404 27.3508 20.202 27.4837 20.1368C27.4837 20.1368 29.8012 18.9668 30.2737 16.8518C30.5775 15.5018 30.2287 13.6455 27.72 11.5193C26.1787 10.2143 25.7175 9.22427 25.9087 8.39177C26.1675 7.23302 27.4837 6.64802 27.4837 6.64802C27.6169 6.58322 27.7359 6.49278 27.8341 6.38187C27.9322 6.27096 28.0074 6.14178 28.0555 6.00172C28.1036 5.86167 28.1235 5.7135 28.1142 5.56571C28.1049 5.41793 28.0665 5.27344 28.0012 5.14052C27.9364 5.00737 27.846 4.88833 27.7351 4.79021C27.6242 4.6921 27.495 4.61684 27.3549 4.56876C27.2149 4.52068 27.0667 4.50073 26.9189 4.51004C26.7712 4.51935 26.6267 4.55774 26.4937 4.62302L26.505 4.61177ZM33.2662 6.89552C33.2662 6.89552 31.7587 7.76177 31.4437 9.33677C31.2525 10.3155 31.4437 11.6318 33.0187 13.173C33.795 13.9268 34.0537 14.5005 33.9637 14.9843C33.8512 15.5805 33.255 15.8955 33.255 15.8955C33.0124 16.0502 32.8384 16.292 32.7685 16.5711C32.6987 16.8502 32.7385 17.1454 32.8797 17.3961C33.0209 17.6468 33.2528 17.8338 33.5276 17.9188C33.8025 18.0038 34.0995 17.9803 34.3575 17.853C34.3575 17.853 35.865 16.9868 36.1687 15.4005C36.36 14.4218 36.1687 13.1055 34.5937 11.5643C33.8287 10.8105 33.5587 10.2368 33.6487 9.76427C33.7612 9.16802 34.3575 8.85302 34.3575 8.85302C34.8975 8.54927 35.0887 7.86302 34.7962 7.32302C34.4925 6.78302 33.8062 6.59177 33.2662 6.88427V6.89552ZM19.5637 6.90677C19.5637 6.90677 18.1012 7.76177 17.8087 9.34802C17.6287 10.3155 17.82 11.6318 19.3275 13.1618C20.07 13.9268 20.3287 14.5118 20.2387 14.9955C20.1262 15.5918 19.5637 15.9068 19.5637 15.9068C19.0237 16.2218 18.8437 16.908 19.1587 17.448C19.4737 17.988 20.16 18.168 20.7 17.853C20.7 17.853 22.1625 16.9868 22.455 15.4005C22.635 14.433 22.4437 13.1168 20.9362 11.5868C20.1937 10.8218 19.935 10.2368 20.025 9.76427C20.1375 9.16802 20.7 8.85302 20.7 8.85302C21.24 8.53802 21.42 7.85177 21.105 7.31177C21.0308 7.18358 20.9319 7.07134 20.8141 6.98152C20.6963 6.89169 20.5619 6.82607 20.4187 6.78842C20.2754 6.75078 20.1261 6.74185 19.9794 6.76217C19.8327 6.78248 19.6914 6.83162 19.5637 6.90677Z" fill="#5331EA"/>
</svg>
