<svg width="44" height="44" viewBox="0 0 44 44" fill="none" xmlns="http://www.w3.org/2000/svg">
<path d="M38.9548 9.77994C38.5148 9.52878 37.9557 9.67819 37.7036 10.1182C37.4515 10.5573 37.6027 11.1174 38.0418 11.3704C38.8888 11.8571 39.415 12.7674 39.415 13.7473V30.2473C39.415 31.7634 38.1812 32.9973 36.665 32.9973H32.9983C32.4914 32.9973 32.0817 33.4079 32.0817 33.9139L32.0798 38.5L26.8548 33.2659C26.6825 33.0935 26.4497 32.9973 26.2058 32.9973H17.4792C16.9723 32.9973 16.5625 33.4079 16.5625 33.9139C16.5625 34.4199 16.9723 34.8306 17.4792 34.8306H25.8245L30.7818 39.7962C31.1329 40.1473 31.5995 40.3334 32.0753 40.3334C32.3118 40.3334 32.5519 40.2875 32.7802 40.1922C33.4695 39.9071 33.9141 39.2416 33.9141 38.4973V34.8306H36.6641C39.1913 34.8306 41.2474 32.7745 41.2474 30.2473V13.7464C41.2474 12.1129 40.3693 10.593 38.9548 9.77994Z" fill="#5331EA"/>
<path d="M31.1667 29.3327C33.6939 29.3327 35.75 27.2766 35.75 24.7493V8.24935C35.75 5.7221 33.6939 3.66602 31.1667 3.66602H7.33333C4.80608 3.66602 2.75 5.7221 2.75 8.24935V24.7493C2.75 27.2766 4.80608 29.3327 7.33333 29.3327H10.0833V32.9975C10.0833 33.7418 10.527 34.4064 11.2145 34.6915C11.4427 34.7859 11.682 34.8318 11.9185 34.8318C12.3952 34.8318 12.8608 34.6448 13.2128 34.2937L18.1738 29.3327H31.1667ZM17.1462 27.7679L11.9167 32.9975V28.416C11.9167 27.91 11.5069 27.4993 11 27.4993H7.33333C5.81717 27.4993 4.58333 26.2655 4.58333 24.7493V8.24935C4.58333 6.73318 5.81717 5.49935 7.33333 5.49935H31.1667C32.6828 5.49935 33.9167 6.73318 33.9167 8.24935V24.7493C33.9167 26.2655 32.6828 27.4993 31.1667 27.4993H17.7943C17.5505 27.4993 17.3177 27.5956 17.1462 27.7679Z" fill="#5331EA"/>
<path d="M24.7491 13.75H22.1659L22.6132 11.0623C22.7306 10.3602 22.5335 9.647 22.0733 9.10433C21.6141 8.56167 20.9422 8.25 20.2308 8.25C19.3096 8.25 18.4543 8.70833 17.9428 9.47467L15.0929 13.75H12.8333C11.8222 13.75 11 14.5722 11 15.5833V22C11 23.0111 11.8222 23.8333 12.8333 23.8333H23.9892C25.3403 23.8333 26.4816 22.8662 26.7025 21.5334L27.4624 16.9501C27.5953 16.1517 27.3707 15.3395 26.8473 14.7217C26.3239 14.1038 25.5594 13.75 24.7491 13.75ZM12.8333 15.5833H14.6667V22H12.8333V15.5833ZM24.8939 21.2337C24.8197 21.6773 24.4392 22 23.9892 22H16.5V14.9444L19.4682 10.4922C19.6387 10.2364 19.9237 10.0843 20.2308 10.0843C20.4655 10.0843 20.6094 10.2135 20.6745 10.2905C20.7387 10.3666 20.8432 10.5307 20.8047 10.7617L20.1786 14.5172C20.1337 14.7831 20.2088 15.0544 20.3839 15.2607C20.5572 15.466 20.8138 15.5852 21.0833 15.5852H24.7491C25.0232 15.5852 25.2716 15.6998 25.4494 15.9097C25.6254 16.1187 25.6987 16.3827 25.6547 16.6522L24.8948 21.2355L24.8939 21.2337Z" fill="#5331EA"/>
</svg>
