<svg width="53" height="41" viewBox="0 0 53 41" fill="none" xmlns="http://www.w3.org/2000/svg">
<path d="M50.2642 28.1752C49.9816 26.6919 49.2156 25.4903 48.1074 24.7918C46.962 24.0686 45.5149 23.9148 44.0315 24.3595C42.094 24.939 40.0706 25.6058 38.3467 26.1948L45.5723 18.6637C47.2586 16.9068 48.1825 14.575 48.1737 12.0976C48.1649 9.6219 47.2244 7.29912 45.5283 5.55864C43.8421 3.82057 41.6025 2.86328 39.2222 2.86328C36.8185 2.86328 34.5609 3.8337 32.8637 5.59801C32.8637 5.59801 32.4879 5.99068 32.1137 6.38067C31.9171 6.1763 31.6691 5.9197 31.3581 5.59775C29.6687 3.8345 27.4154 2.86328 25.0136 2.86328C22.6245 2.86328 20.38 3.82057 18.6953 5.55677C16.9966 7.29992 16.0569 9.62324 16.0491 12.0992C16.0414 14.5768 16.9679 16.9085 18.6557 18.6629L19.904 19.9636C19.2632 19.8145 18.6736 19.6893 18.164 19.5985C15.5404 19.1295 5.33839 23.4525 3.32009 24.3236C2.77974 24.5566 2.52458 25.1989 2.74998 25.7582C2.97539 26.318 3.59467 26.5837 4.13631 26.3485C9.79706 23.9052 16.4552 21.524 17.804 21.7608C21.5689 22.432 30.237 25.1576 30.827 25.3441C32.6096 26.041 33.2177 27.1446 32.7416 28.8132C32.571 29.4113 32.3194 29.8481 31.7781 30.0295C31.7761 30.0301 31.7741 30.0308 31.7721 30.0314C31.4467 30.1389 31.0175 30.155 30.4389 30.0587L18.9709 27.9652C18.3951 27.8613 17.8449 28.2588 17.7429 28.855C17.6412 29.4518 18.0263 30.0207 18.6029 30.1262L30.0874 32.2224C30.458 32.284 30.8012 32.3124 31.1184 32.3124C31.4575 32.3124 31.764 32.2766 32.0472 32.2168C32.0709 32.2184 32.094 32.224 32.1179 32.224C32.1251 32.224 32.1324 32.224 32.1396 32.224C32.374 32.2188 32.5964 32.1301 32.7774 31.9804C33.6196 31.599 34.1523 30.9339 34.4847 30.2194L34.978 29.7005C36.2288 29.2445 40.6138 27.6658 44.6205 26.4669C45.5247 26.1964 46.372 26.2671 47.0045 26.6651C47.6074 27.046 48.0153 27.7151 48.1845 28.6C48.3238 29.3313 47.9599 30.288 46.8326 30.6625L36.5421 35.0595C35.0282 35.6428 32.6525 36.1153 31.0656 35.8909L10.7277 32.5278L10.5812 32.5138C10.5714 32.5138 10.5613 32.5138 10.5512 32.5138C9.46659 32.5138 7.85382 33.6822 6.98429 34.3834C6.52261 34.7557 6.4398 35.4446 6.79925 35.923C7.15871 36.4003 7.82483 36.4866 8.28677 36.1148C9.12395 35.4409 10.1705 34.79 10.509 34.7134L30.7546 38.061C31.1278 38.114 31.5247 38.1381 31.9347 38.1381C33.7783 38.1381 35.8915 37.6517 37.317 37.1015L47.5236 32.7372C49.4899 32.0622 50.641 30.1514 50.2642 28.1752ZM31.5392 23.2768L31.4792 23.2557C31.2393 23.1797 27.5623 22.0173 23.881 20.9943L20.1595 17.1163C18.8702 15.776 18.1632 13.9969 18.1691 12.1062C18.1751 10.2173 18.8919 8.44471 20.1895 7.11323C21.476 5.78765 23.1891 5.0575 25.0136 5.0575C26.8458 5.0575 28.5644 5.7981 29.8561 7.14591C29.8561 7.14591 31.2126 8.54944 31.3265 8.67291C31.5273 8.90193 31.812 9.03264 32.1112 9.03264C32.5599 9.03264 32.5599 9.03264 34.3678 7.1443C35.6623 5.79863 37.3863 5.0575 39.2222 5.0575C41.0378 5.0575 42.7463 5.78765 44.0341 7.11511C45.3296 8.44444 46.0469 10.2168 46.0537 12.1057C46.0604 13.9967 45.3555 15.7763 44.0693 17.1163L34.8885 26.6849C34.5233 25.1776 33.3829 23.9888 31.5392 23.2768Z" fill="#5331EA"/>
</svg>
