<svg width="38" height="38" viewBox="0 0 38 38" fill="none" xmlns="http://www.w3.org/2000/svg">
<path d="M34.5155 7.59935C32.7738 5.69935 30.2405 4.59102 27.7071 4.43268H27.3905C24.2238 4.43268 21.3738 6.01602 19.4738 8.54935C17.7321 5.22435 14.4071 3.16602 10.7655 3.16602H10.6071C7.91546 3.16602 5.22379 4.27435 3.48213 6.33268C1.58213 8.23268 0.632127 10.9243 0.79046 13.616C1.10713 18.366 3.48213 20.741 5.69879 22.7993C8.23213 25.3327 10.6071 27.391 9.81546 33.4077C9.81546 34.3577 10.2905 34.991 11.0821 34.991C11.3988 34.991 11.5571 34.991 12.0321 34.8327C28.4988 29.766 37.2071 22.9577 37.2071 15.3577V15.1993C37.3655 12.191 36.4155 9.65768 34.5155 7.59935Z" fill="#5331EA"/>
</svg>
