<svg width="47" height="47" viewBox="0 0 47 47" fill="none" xmlns="http://www.w3.org/2000/svg">
<path d="M13.948 4.40236C13.948 3.59117 14.6056 2.93359 15.4168 2.93359H16.8957C17.7069 2.93359 18.3645 3.59117 18.3645 4.40236V5.87325H13.948V4.40236ZM10.2812 8.81299C9.47009 8.81299 8.8125 9.47057 8.8125 10.2817V13.2192H23.5V10.2817C23.5 9.47057 22.8424 8.81299 22.0312 8.81299H10.2812ZM24.9764 16.1567C25.7458 16.1582 26.3764 16.7512 26.4375 17.5052V44.0629H24.9688C24.9204 44.0629 24.8726 44.0605 24.8254 44.0561H19.0536C18.2424 44.0561 17.5848 43.3984 17.5848 42.5874V39.9927C17.5848 39.1817 16.9273 38.5239 16.1161 38.5239C15.3049 38.5239 14.6473 39.1817 14.6473 39.9927V42.5874C14.6473 43.3984 13.9898 44.0561 13.1786 44.0561H7.34375C6.53259 44.0561 5.875 43.3984 5.875 42.5874V17.6255C5.875 16.8148 6.53185 16.1575 7.34243 16.1567H24.9764ZM13.2044 24.9692C14.0156 24.9692 14.6732 24.3116 14.6732 23.5005V22.0317C14.6732 21.2206 14.0156 20.563 13.2044 20.563C12.3932 20.563 11.7357 21.2206 11.7357 22.0317V23.5005C11.7357 24.3116 12.3932 24.9692 13.2044 24.9692ZM11.7357 30.8333C11.7357 31.6446 12.3932 32.302 13.2044 32.302C14.0156 32.302 14.6732 31.6446 14.6732 30.8333V29.3646C14.6732 28.5534 14.0156 27.8958 13.2044 27.8958C12.3932 27.8958 11.7357 28.5534 11.7357 29.3646V30.8333ZM17.6264 30.8333C17.6264 31.6446 18.284 32.302 19.0952 32.302C19.9064 32.302 20.5639 31.6446 20.5639 30.8333V29.3646C20.5639 28.5534 19.9064 27.8958 19.0952 27.8958C18.284 27.8958 17.6264 28.5534 17.6264 29.3646V30.8333ZM17.6264 23.5005C17.6264 24.3116 18.284 24.9692 19.0952 24.9692C19.9064 24.9692 20.5639 24.3116 20.5639 23.5005V22.0317C20.5639 21.2206 19.9064 20.563 19.0952 20.563C18.284 20.563 17.6264 21.2206 17.6264 22.0317V23.5005ZM29.375 44.0629H39.6562C40.4673 44.0629 41.125 43.4055 41.125 42.5941V33.7816C41.125 26.9777 35.9844 21.3743 29.375 20.6436V44.0629ZM32.3125 30.8538C32.3125 30.0428 32.9702 29.3851 33.7812 29.3851H35.25C36.061 29.3851 36.7188 30.0428 36.7188 30.8538C36.7188 31.6652 36.061 32.3226 35.25 32.3226H33.7812C32.9702 32.3226 32.3125 31.6652 32.3125 30.8538ZM33.7812 35.2621H35.25C36.061 35.2621 36.7188 35.9199 36.7188 36.7309C36.7188 37.5419 36.061 38.1996 35.25 38.1996H33.7812C32.9702 38.1996 32.3125 37.5419 32.3125 36.7309C32.3125 35.9199 32.9702 35.2621 33.7812 35.2621Z" fill="#5331EA"/>
</svg>
