<svg width="38" height="38" viewBox="0 0 38 38" fill="none" xmlns="http://www.w3.org/2000/svg">
<path d="M24.9384 2.375C19.0009 2.375 14.2509 7.125 14.2509 13.0625C14.2509 14.9625 14.8447 16.9812 15.9134 19H13.0634C12.9447 19 12.7072 19 12.5884 19.1187C12.4697 19.2375 12.3509 19.2375 12.2322 19.3562L2.73216 28.8562C2.37591 29.2125 2.25716 29.6875 2.49466 30.1625C2.73216 30.6375 3.08841 30.875 3.56341 30.875H11.4009L15.7947 35.2687C16.0322 35.5063 16.2697 35.625 16.6259 35.625H24.9384C25.0572 35.625 25.2947 35.625 25.4134 35.5062C25.5322 35.3875 25.6509 35.3875 25.7697 35.2687L35.2697 25.7688C35.3884 25.65 35.5072 25.5312 35.5072 25.4125C35.6259 25.175 35.6259 24.8188 35.5072 24.4625C35.3884 24.225 35.1509 23.9875 34.9134 23.8687C34.7947 23.75 34.5572 23.75 34.4384 23.75H30.5197C33.1322 20.7812 35.6259 16.9812 35.6259 13.0625C35.6259 7.125 30.8759 2.375 24.9384 2.375ZM24.9384 4.75C29.5697 4.75 33.2509 8.43125 33.2509 13.0625C33.2509 17.3375 29.2134 21.85 26.8384 24.1062C26.1259 24.8187 25.4134 25.4125 24.9384 25.7688C23.6322 24.7 21.0197 22.325 19.1197 19.475C17.4572 17.1 16.6259 14.9625 16.6259 13.0625C16.6259 8.43125 20.3072 4.75 24.9384 4.75ZM12.7072 28.8562C12.4697 28.6187 12.2322 28.5 11.8759 28.5H6.41341L13.5384 21.375H17.4572C20.3072 25.2938 23.9884 28.1437 24.2259 28.2625C24.4634 28.3812 24.7009 28.5 24.9384 28.5C25.1759 28.5 25.4134 28.3812 25.6509 28.2625C25.6509 28.2625 26.7197 27.4312 28.1447 26.125H31.5884L24.4634 33.25H17.1009L12.7072 28.8562Z" fill="#5331EA"/>
<path d="M24.9375 18.7617C28.2625 18.7617 30.875 16.1492 30.875 12.8242C30.875 9.49922 28.2625 6.88672 24.9375 6.88672C21.6125 6.88672 19 9.49922 19 12.8242C19 16.1492 21.6125 18.7617 24.9375 18.7617ZM24.9375 9.26172C26.9563 9.26172 28.5 10.8055 28.5 12.8242C28.5 14.843 26.9563 16.3867 24.9375 16.3867C22.9188 16.3867 21.375 14.843 21.375 12.8242C21.375 10.8055 22.9188 9.26172 24.9375 9.26172Z" fill="#5331EA"/>
</svg>
