<svg width="45" height="45" viewBox="0 0 45 45" fill="none" xmlns="http://www.w3.org/2000/svg">
<path d="M29.7836 4.10547H15.2148C14.1333 4.10547 13.096 4.53513 12.3312 5.29992C11.5664 6.06472 11.1367 7.10201 11.1367 8.18359V36.8148C11.1367 37.8964 11.5664 38.9337 12.3312 39.6985C13.096 40.4633 14.1333 40.893 15.2148 40.893H29.7836C30.8652 40.893 31.9025 40.4633 32.6673 39.6985C33.4321 38.9337 33.8617 37.8964 33.8617 36.8148V8.18359C33.8617 7.10201 33.4321 6.06472 32.6673 5.29992C31.9025 4.53513 30.8652 4.10547 29.7836 4.10547ZM30.8242 36.8148C30.8242 37.0908 30.7146 37.3555 30.5194 37.5507C30.3243 37.7458 30.0596 37.8555 29.7836 37.8555H15.2148C14.9389 37.8555 14.6742 37.7458 14.479 37.5507C14.2839 37.3555 14.1742 37.0908 14.1742 36.8148V8.18359C14.1742 7.9076 14.2839 7.64292 14.479 7.44776C14.6742 7.25261 14.9389 7.14297 15.2148 7.14297H29.7836C30.0596 7.14297 30.3243 7.25261 30.5194 7.44776C30.7146 7.64292 30.8242 7.9076 30.8242 8.18359V36.8148Z" fill="#5331EA"/>
<path d="M23.9055 33.6367H21.093C20.6902 33.6367 20.3039 33.7967 20.019 34.0815C19.7342 34.3664 19.5742 34.7527 19.5742 35.1555C19.5742 35.5583 19.7342 35.9446 20.019 36.2294C20.3039 36.5142 20.6902 36.6742 21.093 36.6742H23.9055C24.3083 36.6742 24.6946 36.5142 24.9794 36.2294C25.2642 35.9446 25.4242 35.5583 25.4242 35.1555C25.4242 34.7527 25.2642 34.3664 24.9794 34.0815C24.6946 33.7967 24.3083 33.6367 23.9055 33.6367Z" fill="#5331EA"/>
</svg>
