<svg width="69" height="69" viewBox="0 0 69 69" fill="none" xmlns="http://www.w3.org/2000/svg">
<path d="M40.9118 26.0236C40.9107 26.2115 40.9037 26.3993 40.8908 26.5868C40.8844 26.6794 40.8746 26.7718 40.8648 26.8642C40.8315 27.1774 40.9052 26.606 40.8567 26.9158C40.7958 27.3043 40.6968 27.686 40.575 28.0595C40.5472 28.1447 40.5163 28.2289 40.4854 28.313C40.4671 28.3629 40.3518 28.645 40.4712 28.3626C40.402 28.5262 40.3239 28.686 40.2432 28.8442C40.0691 29.1848 39.8629 29.5083 39.6387 29.818C39.4628 30.0611 39.7956 29.6238 39.6086 29.8581C39.5538 29.9267 39.4965 29.9934 39.4393 30.0601C39.325 30.1934 39.2037 30.3206 39.0802 30.4454C38.9568 30.5704 38.8268 30.6887 38.6949 30.8046C38.6289 30.8625 38.5609 30.9182 38.4929 30.9739C38.3912 31.0545 38.4014 31.0471 38.5235 30.9515C38.4766 30.9868 38.4293 31.0215 38.3816 31.0556C38.0955 31.2627 37.7914 31.4441 37.479 31.6084C37.3217 31.6911 37.1602 31.7653 36.9974 31.8364C37.2778 31.7138 36.998 31.8315 36.9478 31.8506C36.8361 31.8932 36.7225 31.931 36.6089 31.9681C36.2636 32.0807 35.9085 32.1612 35.5507 32.2218C35.2415 32.2742 35.8119 32.1928 35.499 32.23C35.4069 32.241 35.3143 32.2485 35.2217 32.2559C35.003 32.2737 34.7833 32.2778 34.564 32.2764C34.3766 32.2752 34.1894 32.2636 34.0026 32.2484C33.9103 32.2404 33.8181 32.2306 33.7262 32.219C34.0401 32.2563 33.7314 32.2159 33.676 32.2064C33.289 32.1409 32.9091 32.0374 32.5378 31.9113C32.453 31.8825 32.3693 31.8506 32.2857 31.8188C32.0011 31.7104 32.5164 31.9224 32.2381 31.8007C32.0754 31.7295 31.9167 31.6497 31.7596 31.5671C31.4212 31.3891 31.1003 31.1792 30.7935 30.9515C31.0355 31.1311 30.7975 30.9519 30.7561 30.9181C30.6885 30.8621 30.6218 30.8049 30.5561 30.7466C30.4242 30.6307 30.2984 30.5079 30.1751 30.383C30.0516 30.258 29.9348 30.1266 29.8204 29.9934C29.7632 29.9267 29.7084 29.8581 29.6535 29.7894C29.8496 30.0349 29.6101 29.7234 29.5758 29.6748C29.372 29.3861 29.1941 29.0797 29.0335 28.7652C28.9931 28.6861 28.9556 28.6056 28.918 28.5252C28.8953 28.4763 28.7804 28.1966 28.8961 28.4795C28.817 28.2859 28.7496 28.0877 28.6873 27.8881C28.5787 27.5409 28.5024 27.1842 28.4461 26.825C28.4951 27.1377 28.4483 26.8279 28.4424 26.7721C28.4331 26.6794 28.4256 26.5866 28.4198 26.4937C28.4048 26.2744 28.4034 26.0544 28.4075 25.8348C28.411 25.6478 28.4249 25.4613 28.4424 25.2753C28.4476 25.2199 28.4914 24.9083 28.4461 25.2223C28.4592 25.1316 28.4756 25.0414 28.492 24.9512C28.5623 24.5657 28.6703 24.1877 28.8007 23.8185C28.8305 23.7342 28.8634 23.651 28.8962 23.5678C28.7842 23.8516 28.8957 23.5718 28.9181 23.5222C28.9911 23.3605 29.0728 23.2029 29.1572 23.047C29.2413 22.8916 29.3337 22.7409 29.4286 22.592C29.476 22.5176 29.526 22.4451 29.5759 22.3726C29.6094 22.324 29.847 22.0098 29.6536 22.258C29.8696 21.9808 30.1098 21.7231 30.3624 21.4793C30.4887 21.3572 30.6215 21.242 30.7561 21.1293C30.7967 21.0953 31.0339 20.9131 30.7935 21.0959C30.8869 21.0248 30.9832 20.9577 31.0799 20.8911C31.3712 20.6905 31.6799 20.5162 31.9965 20.3592C32.0764 20.3203 32.1569 20.2827 32.2381 20.2466C32.515 20.1216 32.0026 20.3404 32.2858 20.2286C32.4806 20.1516 32.6799 20.0867 32.8804 20.0266C33.0541 19.9747 33.2303 19.9324 33.4072 19.8933C33.4964 19.8736 33.5863 19.8572 33.6761 19.8409C33.7307 19.8309 34.0403 19.787 33.7263 19.8283C34.1289 19.7754 34.536 19.763 34.9415 19.7756C35.1279 19.7814 35.3137 19.7977 35.499 19.8173C35.8123 19.8506 35.2409 19.7769 35.5507 19.8255C35.6411 19.8397 35.7309 19.8572 35.8207 19.8747C36.2047 19.9496 36.5808 20.062 36.9479 20.1967C36.9978 20.215 37.2799 20.3304 36.9974 20.2109C37.0794 20.2456 37.16 20.2832 37.2406 20.3208C37.4013 20.3956 37.5577 20.4792 37.7126 20.5654C37.8668 20.6513 38.0164 20.7453 38.164 20.842C38.2378 20.8902 38.3097 20.941 38.3816 20.9918C38.4247 21.0223 38.6626 21.2046 38.4242 21.0188C38.7013 21.2348 38.9591 21.475 39.2029 21.7276C39.325 21.8539 39.4402 21.9867 39.553 22.1213C39.587 22.1619 39.7691 22.3991 39.5864 22.1587C39.6396 22.2288 39.6904 22.3007 39.7411 22.3726C39.945 22.6613 40.1229 22.9676 40.2835 23.2822C40.3239 23.3613 40.3615 23.4417 40.399 23.5223C40.4218 23.5711 40.5365 23.8508 40.4208 23.5679C40.4886 23.7337 40.5473 23.9032 40.6028 24.0734C40.7155 24.4188 40.7959 24.7738 40.8567 25.1317C40.909 25.4408 40.8276 24.8705 40.8648 25.1833C40.8757 25.2756 40.8833 25.3681 40.8908 25.4607C40.906 25.6478 40.9106 25.8358 40.9118 26.0236C40.9159 26.6664 41.4452 27.2028 42.091 27.2028C42.7308 27.2028 43.2743 26.6665 43.2702 26.0236C43.2496 22.7162 41.3038 19.5808 38.2694 18.2101C35.097 16.7772 31.4076 17.3671 28.8232 19.6918C26.3375 21.9279 25.4263 25.6202 26.4967 28.7713C27.0154 30.2983 27.963 31.6884 29.2252 32.6962C30.593 33.7882 32.1726 34.4135 33.9102 34.5981C36.3068 34.8528 38.721 33.9503 40.4939 32.3555C42.2678 30.7597 43.2553 28.3942 43.2702 26.0236C43.2742 25.3808 42.7308 24.8444 42.091 24.8444C41.4452 24.8444 40.9159 25.3809 40.9118 26.0236Z" fill="#5331EA"/>
<path d="M43.1714 34.3408C43.3365 34.446 43.4987 34.5557 43.6578 34.6697C43.6891 34.6921 43.9479 34.8909 43.7307 34.7211C43.8076 34.7812 43.8825 34.8438 43.9574 34.9064C44.282 35.1773 44.583 35.4755 44.8671 35.7883C44.9984 35.9328 45.1226 36.0835 45.2444 36.236C45.0726 36.0207 45.2727 36.2777 45.2956 36.3091C45.3529 36.3883 45.4089 36.4685 45.4637 36.5496C45.7037 36.9011 45.9132 37.2726 46.102 37.6538C46.1453 37.7425 46.1871 37.8319 46.2275 37.922C46.3644 38.2227 46.139 37.698 46.2628 38.005C46.3373 38.1895 46.4026 38.3776 46.4648 38.5667C46.6013 38.9815 46.7008 39.4079 46.7763 39.8378C46.7833 39.8779 46.8309 40.2153 46.7936 39.9287C46.8069 40.0308 46.8167 40.1332 46.8265 40.2357C46.8463 40.4426 46.8556 40.6504 46.8615 40.8582C46.8645 40.9655 46.8639 41.0729 46.8639 41.1802V47.1921C46.8639 47.2684 46.8614 47.3062 46.8577 47.382C46.8424 47.6958 46.9069 47.131 46.8521 47.4363C46.836 47.5261 46.8113 47.614 46.7866 47.7017C46.772 47.7536 46.6629 48.0374 46.7813 47.7576C46.7119 47.9216 46.6198 48.075 46.5216 48.2229C46.3566 48.4713 46.6823 48.0368 46.4885 48.2627C46.4118 48.3521 46.3258 48.4329 46.239 48.5122C46.0191 48.7128 46.4423 48.3728 46.1992 48.5453C46.1268 48.5967 46.0499 48.6412 45.9732 48.6856C45.896 48.7303 45.8148 48.7677 45.7339 48.8049C46.0066 48.6794 45.7326 48.7931 45.678 48.8103C45.591 48.8378 45.5017 48.8568 45.4126 48.8758C45.1091 48.9405 45.6715 48.856 45.3584 48.8814C45.2935 48.8867 45.2274 48.8876 45.1623 48.8876H24.1469C24.0636 48.8876 24.0406 48.8855 23.9577 48.8814C23.6439 48.8661 24.2088 48.9306 23.9034 48.8758C23.8137 48.8597 23.7258 48.835 23.6381 48.8103C23.5804 48.7932 23.5233 48.7741 23.4668 48.7533C23.6092 48.8175 23.6206 48.8222 23.501 48.7676C23.3396 48.6932 23.1893 48.5967 23.0447 48.494C23.2851 48.6646 23.0546 48.4916 23.0119 48.4526C22.9467 48.3931 22.887 48.3277 22.8276 48.2627C22.6269 48.0427 22.967 48.4659 22.7945 48.2228C22.7431 48.1505 22.6986 48.0735 22.6542 47.9968C22.6094 47.9196 22.5721 47.8384 22.5348 47.7575C22.6651 48.0404 22.5225 47.677 22.5048 47.6142C22.4801 47.526 22.4639 47.4357 22.4477 47.3457C22.5024 47.6502 22.4567 47.3487 22.4538 47.288C22.4519 47.2486 22.4522 47.2087 22.4522 47.1692V41.3887C22.4522 41.0723 22.4538 40.7569 22.4734 40.4409C22.4798 40.3376 22.4897 40.2345 22.4996 40.1315C22.5034 40.0915 22.5487 39.7509 22.5081 40.0372C22.5366 39.8356 22.5753 39.6356 22.6172 39.4364C22.7069 39.0109 22.8341 38.5938 22.9837 38.1856C23.0178 38.0923 23.0552 38.0002 23.0924 37.908C22.9879 38.1664 23.1157 37.8623 23.1319 37.8266C23.2138 37.647 23.3043 37.4715 23.3977 37.2977C23.5989 36.9229 23.832 36.5661 24.0832 36.2231C24.2763 35.9594 23.9343 36.4074 24.1383 36.1523C24.1993 36.076 24.2628 36.0017 24.3263 35.9273C24.4531 35.7786 24.587 35.6362 24.723 35.496C24.8591 35.3558 25.0017 35.2221 25.1464 35.0909C25.2191 35.0256 25.2928 34.9615 25.3676 34.8986C25.4049 34.8667 25.7334 34.6085 25.5112 34.7781C25.6929 34.6394 25.8819 34.5106 26.0734 34.3858C26.611 34.0358 26.8332 33.3472 26.4965 32.7725C26.1835 32.2383 25.4223 31.9983 24.8831 32.3495C21.9332 34.2703 20.0938 37.548 20.0938 41.0834V46.2982C20.0938 47.2853 20.1178 48.1913 20.5755 49.109C21.2378 50.437 22.7246 51.2461 24.1808 51.2461H45.1555C46.8685 51.2461 48.3606 50.1647 48.9715 48.5838C49.2785 47.7894 49.2223 46.9289 49.2223 46.0942V41.0681C49.2223 39.2422 48.7264 37.4359 47.8133 35.8568C46.9774 34.4112 45.7653 33.1998 44.3619 32.3044C43.8194 31.9583 43.0636 32.1894 42.7485 32.7274C42.414 33.2982 42.6306 33.9957 43.1714 34.3408ZM59.4485 32.5823C59.4468 32.7687 59.4362 32.9549 59.4167 33.1403C59.4496 32.8273 59.4138 33.1312 59.4033 33.1886C59.387 33.2778 59.3657 33.3659 59.3444 33.454C59.3023 33.6283 59.2456 33.7988 59.1843 33.9671C59.0806 34.2517 59.2903 33.738 59.1664 34.0132C59.118 34.1206 59.0628 34.2248 59.0067 34.3282C58.923 34.4828 58.8267 34.6302 58.7267 34.7747C58.5569 35.0202 58.8858 34.5825 58.6989 34.8149C58.6441 34.8831 58.5856 34.9482 58.5272 35.0132C58.4103 35.1435 58.2831 35.264 58.153 35.3807C58.0878 35.4392 58.0196 35.4941 57.9514 35.5489C58.1962 35.352 57.8852 35.5866 57.8344 35.6204C57.6878 35.718 57.5335 35.8034 57.3772 35.8844C57.2986 35.9251 57.2179 35.9616 57.1372 35.9979C57.4158 35.8724 57.1404 35.9909 57.0881 36.01C56.9192 36.0715 56.7455 36.1187 56.5709 36.1608C56.4826 36.1821 56.3931 36.1985 56.3038 36.2148C56.1698 36.2359 56.1836 36.2348 56.345 36.2118C56.2838 36.2189 56.2224 36.2246 56.1609 36.2294C55.9742 36.2455 55.7864 36.2454 55.5992 36.2401C55.5062 36.2374 55.4135 36.2294 55.3209 36.2215C55.0082 36.1947 55.5778 36.265 55.2703 36.2148C55.0916 36.1857 54.9157 36.1415 54.7416 36.0924C54.6554 36.0682 54.5706 36.0391 54.486 36.01C54.43 35.9902 54.3743 35.9693 54.3191 35.9474C54.4637 36.0102 54.476 36.015 54.3561 35.9615C54.1952 35.889 54.0405 35.8034 53.8886 35.7138C53.8129 35.6691 53.7397 35.6204 53.6666 35.5718C53.6222 35.5423 53.3833 35.3634 53.6226 35.549C53.3228 35.3165 53.0577 35.0417 52.8203 34.7467C53.0094 34.9816 52.8285 34.7475 52.7975 34.7027C52.7475 34.6305 52.7014 34.5556 52.6555 34.4808C52.563 34.3304 52.4831 34.1728 52.4078 34.0133C52.2788 33.7403 52.4988 34.2499 52.3898 33.9672C52.3576 33.8838 52.3302 33.7987 52.3027 33.7137C52.238 33.5129 52.1922 33.3065 52.1544 33.0991C52.0984 32.7926 52.1806 33.3606 52.1478 33.0486C52.138 32.956 52.1336 32.8631 52.1292 32.7703C52.1203 32.583 52.1273 32.3954 52.1398 32.2086C52.1437 32.1522 52.1849 31.8415 52.1397 32.1559C52.1526 32.0657 52.1707 31.9764 52.1888 31.8871C52.2304 31.6813 52.2912 31.4799 52.3593 31.2814C52.3769 31.23 52.4922 30.9503 52.3714 31.2324C52.4062 31.1511 52.4456 31.0717 52.4848 30.9924C52.563 30.8346 52.654 30.6835 52.7489 30.5352C52.7962 30.4613 52.8474 30.3901 52.8987 30.3189C52.7233 30.5626 52.8956 30.3256 52.9313 30.2828C53.0621 30.1261 53.2067 29.9815 53.3561 29.8426C53.4201 29.7829 53.4873 29.7268 53.5545 29.6708C53.6557 29.5897 53.6453 29.5975 53.5234 29.6942C53.5706 29.6596 53.6183 29.6259 53.6667 29.5931C53.8356 29.4762 54.0147 29.3748 54.1969 29.2804C54.2755 29.2397 54.3562 29.2033 54.437 29.167C54.1468 29.2976 54.5116 29.1461 54.5705 29.1259C54.7984 29.0476 55.0336 28.9933 55.2703 28.95C55.5769 28.894 55.0088 28.9762 55.3209 28.9434C55.4445 28.9304 55.5688 28.9257 55.6929 28.9221C55.9107 28.9159 56.1286 28.9303 56.345 28.953C56.032 28.9201 56.336 28.9559 56.3935 28.9664C56.5122 28.988 56.6293 29.0175 56.746 29.048C56.8616 29.0783 56.9751 29.1161 57.0881 29.1548C57.1441 29.1746 57.1998 29.1955 57.255 29.2174C57.1104 29.1546 57.098 29.1499 57.218 29.2034C57.4056 29.2879 57.5851 29.3894 57.7604 29.4971C57.8351 29.543 57.9074 29.593 57.9795 29.643C58.0842 29.7198 58.0748 29.7108 57.9514 29.6159C57.9973 29.6521 58.0424 29.6891 58.0869 29.7269C58.2436 29.8577 58.3882 30.0023 58.5272 30.1516C58.6067 30.2371 58.6807 30.3274 58.7538 30.4183C58.5569 30.1735 58.7914 30.4845 58.8253 30.5353C58.9392 30.7065 59.0373 30.8877 59.1286 31.0717C59.153 31.1211 59.2676 31.3979 59.1523 31.1147C59.1972 31.225 59.2348 31.338 59.2714 31.4512C59.3362 31.652 59.3819 31.8584 59.4197 32.0658C59.4408 32.1998 59.4397 32.1861 59.4167 32.0246C59.4238 32.0859 59.4296 32.1472 59.4343 32.2087C59.445 32.3328 59.4473 32.4577 59.4485 32.5823C59.4546 33.225 59.9803 33.7615 60.6277 33.7615C61.2659 33.7615 61.813 33.2252 61.8069 32.5823C61.7905 30.8647 61.0595 29.1889 59.7545 28.0591C58.344 26.838 56.5607 26.3985 54.7336 26.661C53.0533 26.9024 51.5654 28.0121 50.6652 29.4188C49.7317 30.8774 49.5276 32.7872 50.0562 34.4257C50.4967 35.7914 51.4203 36.9342 52.6236 37.7041C53.8843 38.5109 55.384 38.713 56.8406 38.5036C59.7014 38.0924 61.7801 35.3962 61.8069 32.5823C61.813 31.9395 61.2659 31.4031 60.6277 31.4031C59.9803 31.4031 59.4546 31.9396 59.4485 32.5823Z" fill="#5331EA"/>
<path d="M61.1249 38.3528C61.2067 38.4053 61.2877 38.4592 61.3678 38.5143C61.4009 38.5372 61.6569 38.7345 61.4394 38.5628C61.5915 38.6829 61.7347 38.8139 61.8743 38.9481C62.014 39.0822 62.1439 39.2264 62.2699 39.3734C62.2963 39.4043 62.4918 39.6605 62.3257 39.4392C62.4034 39.5428 62.4753 39.6507 62.5462 39.7591C62.6529 39.9224 62.7474 40.0932 62.8375 40.2661C62.8828 40.3529 62.9238 40.4419 62.9647 40.5309C62.8476 40.2764 62.9803 40.5739 62.9953 40.6132C63.0661 40.7987 63.1229 40.9891 63.1746 41.1806C63.2008 41.2773 63.222 41.3753 63.2432 41.4731C63.2545 41.525 63.3208 41.9523 63.2829 41.6588C63.3934 42.5138 63.326 43.4138 63.326 44.2729V46.3683C63.326 46.4304 63.323 46.4922 63.3169 46.554C63.3405 46.3918 63.339 46.3768 63.3127 46.5089C63.2996 46.5674 63.1918 46.8395 63.3131 46.5621C63.2779 46.6426 63.2316 46.7176 63.1855 46.7922C63.0326 47.0397 63.349 46.6124 63.1536 46.8267C63.1139 46.8703 62.8914 47.0505 63.1297 46.8707C63.0597 46.9235 62.9828 46.9662 62.9064 47.0086C62.6499 47.1508 63.1416 46.9314 62.8607 47.0235C62.8009 47.0431 62.5096 47.0897 62.8193 47.0515C62.7631 47.0585 62.6879 47.0606 62.6314 47.0606H52.1432C51.5004 47.0606 50.964 47.597 50.964 48.2398C50.964 48.8826 51.5004 49.419 52.1432 49.419H62.0336C62.8647 49.419 63.688 49.3841 64.3897 48.8546C65.1841 48.2552 65.6845 47.3752 65.6845 46.3625V42.5772C65.6845 41.0935 65.3128 39.6446 64.4751 38.407C63.904 37.5637 63.1715 36.8662 62.3154 36.3166C61.7739 35.969 61.0166 36.2028 60.7021 36.7396C60.3668 37.3115 60.5851 38.0062 61.1249 38.3528ZM17.1906 32.5823C17.1889 32.7687 17.1783 32.9549 17.1588 33.1403C17.1917 32.8273 17.1559 33.1312 17.1454 33.1886C17.1292 33.2778 17.1078 33.3659 17.0866 33.454C17.0445 33.6283 16.9878 33.7988 16.9264 33.9671C16.8227 34.2517 17.0324 33.738 16.9084 34.0132C16.8601 34.1206 16.8049 34.2248 16.7488 34.3282C16.6651 34.4828 16.5688 34.6302 16.4688 34.7747C16.299 35.0202 16.628 34.5825 16.4411 34.8149C16.3862 34.8831 16.3277 34.9482 16.2693 35.0132C16.1525 35.1435 16.0253 35.264 15.8951 35.3807C15.83 35.4392 15.7618 35.4941 15.6936 35.5489C15.9383 35.352 15.6273 35.5866 15.5765 35.6204C15.4299 35.718 15.2756 35.8034 15.1193 35.8844C15.0407 35.9251 14.96 35.9616 14.8793 35.9979C15.1579 35.8724 14.8825 35.9909 14.8302 36.01C14.6614 36.0715 14.4877 36.1187 14.3131 36.1608C14.2247 36.1821 14.1353 36.1985 14.046 36.2148C13.912 36.2359 13.9257 36.2348 14.0872 36.2118C14.0259 36.2189 13.9646 36.2246 13.9031 36.2294C13.7163 36.2455 13.5285 36.2454 13.3414 36.2401C13.2484 36.2374 13.1557 36.2294 13.063 36.2215C12.7504 36.1947 13.32 36.265 13.0125 36.2148C12.8338 36.1857 12.6579 36.1415 12.4838 36.0924C12.3976 36.0682 12.3129 36.0391 12.2282 36.01C12.1722 35.9902 12.1166 35.9693 12.0613 35.9474C12.2059 36.0102 12.2183 36.015 12.0983 35.9615C11.9373 35.889 11.7827 35.8034 11.6308 35.7138C11.5552 35.6691 11.482 35.6204 11.4089 35.5718C11.3645 35.5423 11.1255 35.3634 11.3649 35.549C11.065 35.3165 10.8 35.0417 10.5625 34.7467C10.7516 34.9816 10.5708 34.7475 10.5398 34.7027C10.4898 34.6305 10.4437 34.5556 10.3978 34.4808C10.3053 34.3304 10.2254 34.1728 10.1501 34.0133C10.021 33.7403 10.2411 34.2499 10.1321 33.9672C10.1 33.8838 10.0725 33.7987 10.0451 33.7137C9.98035 33.5129 9.9346 33.3065 9.89673 33.0991C9.84073 32.7926 9.92294 33.3606 9.89006 33.0486C9.88035 32.956 9.87591 32.8631 9.87153 32.7703C9.86257 32.583 9.86971 32.3954 9.88217 32.2086C9.88595 32.1522 9.92719 31.8415 9.88204 32.1559C9.89498 32.0657 9.91303 31.9764 9.93116 31.8871C9.97274 31.6813 10.0336 31.4799 10.1016 31.2814C10.1193 31.23 10.2346 30.9503 10.1137 31.2324C10.1485 31.1511 10.1879 31.0717 10.2271 30.9924C10.3053 30.8346 10.3963 30.6835 10.4911 30.5352C10.5384 30.4613 10.5897 30.3901 10.6409 30.3189C10.4656 30.5626 10.6379 30.3256 10.6736 30.2828C10.8044 30.1261 10.949 29.9815 11.0984 29.8426C11.1624 29.7829 11.2296 29.7268 11.2968 29.6708C11.398 29.5897 11.3876 29.5975 11.2657 29.6942C11.3129 29.6596 11.3606 29.6259 11.409 29.5931C11.5779 29.4762 11.757 29.3748 11.9392 29.2804C12.0178 29.2397 12.0985 29.2033 12.1792 29.167C11.889 29.2976 12.2539 29.1461 12.3127 29.1259C12.5406 29.0476 12.7759 28.9933 13.0126 28.95C13.319 28.894 12.7511 28.9762 13.0631 28.9434C13.1867 28.9304 13.311 28.9257 13.4351 28.9221C13.6529 28.9159 13.8708 28.9303 14.0873 28.953C13.7743 28.9201 14.0782 28.9559 14.1356 28.9664C14.2544 28.988 14.3715 29.0175 14.4882 29.048C14.6038 29.0783 14.7174 29.1161 14.8304 29.1548C14.8864 29.1746 14.942 29.1955 14.9973 29.2174C14.8527 29.1546 14.8403 29.1499 14.9603 29.2034C15.148 29.2879 15.3275 29.3894 15.5026 29.4971C15.5774 29.543 15.6497 29.593 15.7218 29.643C15.8264 29.7198 15.817 29.7108 15.6937 29.6159C15.7395 29.6521 15.7847 29.6891 15.8291 29.7269C15.9858 29.8577 16.1305 30.0023 16.2695 30.1516C16.349 30.2371 16.423 30.3274 16.4961 30.4183C16.2992 30.1735 16.5338 30.4845 16.5676 30.5353C16.6816 30.7065 16.7797 30.8877 16.8708 31.0717C16.8954 31.1211 17.0098 31.3979 16.8946 31.1147C16.9395 31.225 16.9771 31.338 17.0136 31.4512C17.0784 31.652 17.1241 31.8584 17.162 32.0658C17.183 32.1998 17.182 32.1861 17.159 32.0246C17.166 32.0859 17.1718 32.1472 17.1766 32.2087C17.187 32.3328 17.1894 32.4577 17.1906 32.5823C17.1967 33.225 17.7224 33.7615 18.3698 33.7615C19.008 33.7615 19.5551 33.2252 19.549 32.5823C19.5326 30.8647 18.8016 29.1889 17.4966 28.0591C16.0862 26.838 14.3028 26.3985 12.4757 26.661C10.7955 26.9024 9.30753 28.0121 8.40737 29.4188C7.47391 30.8774 7.26988 32.7872 7.79843 34.4257C8.23898 35.7914 9.16246 36.9342 10.3657 37.7041C11.6264 38.5109 13.1261 38.713 14.5827 38.5036C17.4436 38.0924 19.5222 35.3962 19.549 32.5823C19.5552 31.9395 19.008 31.4031 18.3698 31.4031C17.7223 31.4031 17.1967 31.9396 17.1906 32.5823ZM17.1744 47.0604H6.72906C6.63062 47.0604 6.34188 47.0167 6.63109 47.0667C6.54261 47.0514 6.45704 47.0234 6.372 46.9955C6.64571 47.0852 6.39713 47.0007 6.33427 46.9659C6.27901 46.9352 6.06305 46.7587 6.28966 46.9467C6.2373 46.9033 5.99499 46.6174 6.18124 46.8641C6.12841 46.7941 6.08576 46.7172 6.04337 46.6408C5.90113 46.3844 6.12053 46.8761 6.02848 46.5952C6.00887 46.5354 5.96231 46.2441 6.00045 46.5538C5.99398 46.5012 5.99136 46.4194 5.99136 46.3667V42.379C5.99136 42.1706 6.00382 41.9631 6.02356 41.7558C6.05598 41.4153 5.98233 41.9988 6.03771 41.6638C6.05422 41.5638 6.07585 41.4647 6.09748 41.3657C6.14034 41.1697 6.19809 40.9771 6.26055 40.7866C6.29155 40.6921 6.32733 40.5992 6.36304 40.5064C6.2619 40.7691 6.422 40.383 6.44457 40.3363C6.53022 40.1593 6.629 39.9891 6.73169 39.8215C6.7829 39.7381 6.83816 39.6572 6.89341 39.5763C6.91538 39.5441 7.1124 39.2848 6.94253 39.5015C7.20357 39.1686 7.50713 38.8708 7.83178 38.6004C8.0817 38.3922 7.64008 38.7388 7.90328 38.5472C7.98238 38.4897 8.06432 38.4359 8.14612 38.3823C8.68262 38.0308 8.90654 37.3449 8.56915 36.769C8.2569 36.236 7.49399 35.9933 6.95581 36.346C5.39825 37.3666 4.25382 38.9173 3.82325 40.7388C3.58505 41.7463 3.63282 42.783 3.63282 43.8091V46.3549C3.63282 48.0465 5.03735 49.4189 6.71949 49.4189H17.1742C17.817 49.4189 18.3534 48.8825 18.3534 48.2397C18.3534 47.5968 17.8172 47.0604 17.1744 47.0604Z" fill="#5331EA"/>
</svg>
